  0
SECTION
  2
HEADER
  9
$ACADVER
  1
AC1015
  9
$ACADMAINTVER
 70
6
  9
$DWGCODEPAGE
  3
ANSI_1252
  9
$INSBASE
 10
0.0
 20
0.0
 30
0.0
  9
$EXTMIN
 10
1e+20
 20
1e+20
 30
1e+20
  9
$EXTMAX
 10
-1e+20
 20
-1e+20
 30
-1e+20
  9
$LIMMIN
 10
0.0
 20
0.0
  9
$LIMMAX
 10
420.0
 20
297.0
  9
$ORTHOMODE
 70
0
  9
$REGENMODE
 70
1
  9
$FILLMODE
 70
1
  9
$QTEXTMODE
 70
0
  9
$MIRRTEXT
 70
1
  9
$LTSCALE
 40
1.0
  9
$ATTMODE
 70
1
  9
$TEXTSIZE
 40
2.5
  9
$TRACEWID
 40
1.0
  9
$TEXTSTYLE
  7
Standard
  9
$CLAYER
  8
0
  9
$CELTYPE
  6
ByLayer
  9
$CECOLOR
 62
256
  9
$CELTSCALE
 40
1.0
  9
$DISPSILH
 70
0
  9
$DIMSCALE
 40
1.0
  9
$DIMASZ
 40
2.5
  9
$DIMEXO
 40
0.625
  9
$DIMDLI
 40
3.75
  9
$DIMRND
 40
0.0
  9
$DIMDLE
 40
0.0
  9
$DIMEXE
 40
1.25
  9
$DIMTP
 40
0.0
  9
$DIMTM
 40
0.0
  9
$DIMTXT
 40
2.5
  9
$DIMCEN
 40
2.5
  9
$DIMTSZ
 40
0.0
  9
$DIMTOL
 70
0
  9
$DIMLIM
 70
0
  9
$DIMTIH
 70
0
  9
$DIMTOH
 70
0
  9
$DIMSE1
 70
0
  9
$DIMSE2
 70
0
  9
$DIMTAD
 70
1
  9
$DIMZIN
 70
8
  9
$DIMBLK
  1

  9
$DIMASO
 70
1
  9
$DIMSHO
 70
1
  9
$DIMPOST
  1

  9
$DIMAPOST
  1

  9
$DIMALT
 70
0
  9
$DIMALTD
 70
3
  9
$DIMALTF
 40
0.03937007874
  9
$DIMLFAC
 40
1.0
  9
$DIMTOFL
 70
1
  9
$DIMTVP
 40
0.0
  9
$DIMTIX
 70
0
  9
$DIMSOXD
 70
0
  9
$DIMSAH
 70
0
  9
$DIMBLK1
  1

  9
$DIMBLK2
  1

  9
$DIMSTYLE
  2
ISO-25
  9
$DIMCLRD
 70
0
  9
$DIMCLRE
 70
0
  9
$DIMCLRT
 70
0
  9
$DIMTFAC
 40
1.0
  9
$DIMGAP
 40
0.625
  9
$DIMJUST
 70
0
  9
$DIMSD1
 70
0
  9
$DIMSD2
 70
0
  9
$DIMTOLJ
 70
0
  9
$DIMTZIN
 70
8
  9
$DIMALTZ
 70
0
  9
$DIMALTTZ
 70
0
  9
$DIMUPT
 70
0
  9
$DIMDEC
 70
2
  9
$DIMTDEC
 70
2
  9
$DIMALTU
 70
2
  9
$DIMALTTD
 70
3
  9
$DIMTXSTY
  7
Standard
  9
$DIMAUNIT
 70
0
  9
$DIMADEC
 70
0
  9
$DIMALTRND
 40
0.0
  9
$DIMAZIN
 70
0
  9
$DIMDSEP
 70
44
  9
$DIMATFIT
 70
3
  9
$DIMFRAC
 70
0
  9
$DIMLDRBLK
  1

  9
$DIMLUNIT
 70
2
  9
$DIMLWD
 70
-2
  9
$DIMLWE
 70
-2
  9
$DIMTMOVE
 70
0
  9
$LUNITS
 70
2
  9
$LUPREC
 70
4
  9
$SKETCHINC
 40
1.0
  9
$FILLETRAD
 40
10.0
  9
$AUNITS
 70
0
  9
$AUPREC
 70
2
  9
$MENU
  1
.
  9
$ELEVATION
 40
0.0
  9
$PELEVATION
 40
0.0
  9
$THICKNESS
 40
0.0
  9
$LIMCHECK
 70
0
  9
$CHAMFERA
 40
0.0
  9
$CHAMFERB
 40
0.0
  9
$CHAMFERC
 40
0.0
  9
$CHAMFERD
 40
0.0
  9
$SKPOLY
 70
0
  9
$TDCREATE
 40
2460438.68025463
  9
$TDUCREATE
 40
2458532.153996898
  9
$TDUPDATE
 40
2460438.68025463
  9
$TDUUPDATE
 40
2458532.1544311
  9
$TDINDWG
 40
0.0
  9
$TDUSRTIMER
 40
0.0
  9
$USRTIMER
 70
1
  9
$ANGBASE
 50
0.0
  9
$ANGDIR
 70
0
  9
$PDMODE
 70
0
  9
$PDSIZE
 40
0.0
  9
$PLINEWID
 40
0.0
  9
$SPLFRAME
 70
0
  9
$SPLINETYPE
 70
6
  9
$SPLINESEGS
 70
8
  9
$HANDSEED
  5
39
  9
$SURFTAB1
 70
6
  9
$SURFTAB2
 70
6
  9
$SURFTYPE
 70
6
  9
$SURFU
 70
6
  9
$SURFV
 70
6
  9
$UCSBASE
  2

  9
$UCSNAME
  2

  9
$UCSORG
 10
0.0
 20
0.0
 30
0.0
  9
$UCSXDIR
 10
1.0
 20
0.0
 30
0.0
  9
$UCSYDIR
 10
0.0
 20
1.0
 30
0.0
  9
$UCSORTHOREF
  2

  9
$UCSORTHOVIEW
 70
0
  9
$UCSORGTOP
 10
0.0
 20
0.0
 30
0.0
  9
$UCSORGBOTTOM
 10
0.0
 20
0.0
 30
0.0
  9
$UCSORGLEFT
 10
0.0
 20
0.0
 30
0.0
  9
$UCSORGRIGHT
 10
0.0
 20
0.0
 30
0.0
  9
$UCSORGFRONT
 10
0.0
 20
0.0
 30
0.0
  9
$UCSORGBACK
 10
0.0
 20
0.0
 30
0.0
  9
$PUCSBASE
  2

  9
$PUCSNAME
  2

  9
$PUCSORG
 10
0.0
 20
0.0
 30
0.0
  9
$PUCSXDIR
 10
1.0
 20
0.0
 30
0.0
  9
$PUCSYDIR
 10
0.0
 20
1.0
 30
0.0
  9
$PUCSORTHOREF
  2

  9
$PUCSORTHOVIEW
 70
0
  9
$PUCSORGTOP
 10
0.0
 20
0.0
 30
0.0
  9
$PUCSORGBOTTOM
 10
0.0
 20
0.0
 30
0.0
  9
$PUCSORGLEFT
 10
0.0
 20
0.0
 30
0.0
  9
$PUCSORGRIGHT
 10
0.0
 20
0.0
 30
0.0
  9
$PUCSORGFRONT
 10
0.0
 20
0.0
 30
0.0
  9
$PUCSORGBACK
 10
0.0
 20
0.0
 30
0.0
  9
$USERI1
 70
0
  9
$USERI2
 70
0
  9
$USERI3
 70
0
  9
$USERI4
 70
0
  9
$USERI5
 70
0
  9
$USERR1
 40
0.0
  9
$USERR2
 40
0.0
  9
$USERR3
 40
0.0
  9
$USERR4
 40
0.0
  9
$USERR5
 40
0.0
  9
$WORLDVIEW
 70
1
  9
$SHADEDGE
 70
3
  9
$SHADEDIF
 70
70
  9
$TILEMODE
 70
1
  9
$MAXACTVP
 70
64
  9
$PINSBASE
 10
0.0
 20
0.0
 30
0.0
  9
$PLIMCHECK
 70
0
  9
$PEXTMIN
 10
1e+20
 20
1e+20
 30
1e+20
  9
$PEXTMAX
 10
-1e+20
 20
-1e+20
 30
-1e+20
  9
$PLIMMIN
 10
0.0
 20
0.0
  9
$PLIMMAX
 10
420.0
 20
297.0
  9
$UNITMODE
 70
0
  9
$VISRETAIN
 70
1
  9
$PLINEGEN
 70
0
  9
$PSLTSCALE
 70
1
  9
$TREEDEPTH
 70
3020
  9
$CMLSTYLE
  2
Standard
  9
$CMLJUST
 70
0
  9
$CMLSCALE
 40
20.0
  9
$PROXYGRAPHICS
 70
1
  9
$MEASUREMENT
 70
1
  9
$CELWEIGHT
370
-1
  9
$ENDCAPS
280
0
  9
$JOINSTYLE
280
0
  9
$LWDISPLAY
290
0
  9
$INSUNITS
 70
4
  9
$HYPERLINKBASE
  1

  9
$STYLESHEET
  1

  9
$XEDIT
290
1
  9
$CEPSNTYPE
380
0
  9
$PSTYLEMODE
290
1
  9
$FINGERPRINTGUID
  2
{917DB801-64E6-4772-AF76-18E0FF5FC885}
  9
$VERSIONGUID
  2
{DC03F519-3A85-41BE-AC9A-98BBBCAF7913}
  9
$EXTNAMES
290
1
  9
$PSVPSCALE
 40
0.0
  9
$OLESTARTUP
290
0
  0
ENDSEC
  0
SECTION
  2
CLASSES
  0
CLASS
  1
ACDBDICTIONARYWDFLT
  2
AcDbDictionaryWithDefault
  3
ObjectDBX Classes
 90
0
280
0
281
0
  0
CLASS
  1
SUN
  2
AcDbSun
  3
SCENEOE
 90
1153
280
0
281
0
  0
CLASS
  1
VISUALSTYLE
  2
AcDbVisualStyle
  3
ObjectDBX Classes
 90
4095
280
0
281
0
  0
CLASS
  1
MATERIAL
  2
AcDbMaterial
  3
ObjectDBX Classes
 90
1153
280
0
281
0
  0
CLASS
  1
SCALE
  2
AcDbScale
  3
ObjectDBX Classes
 90
1153
280
0
281
0
  0
CLASS
  1
TABLESTYLE
  2
AcDbTableStyle
  3
ObjectDBX Classes
 90
4095
280
0
281
0
  0
CLASS
  1
MLEADERSTYLE
  2
AcDbMLeaderStyle
  3
ACDB_MLEADERSTYLE_CLASS
 90
4095
280
0
281
0
  0
CLASS
  1
DICTIONARYVAR
  2
AcDbDictionaryVar
  3
ObjectDBX Classes
 90
0
280
0
281
0
  0
CLASS
  1
CELLSTYLEMAP
  2
AcDbCellStyleMap
  3
ObjectDBX Classes
 90
1152
280
0
281
0
  0
CLASS
  1
MENTALRAYRENDERSETTINGS
  2
AcDbMentalRayRenderSettings
  3
SCENEOE
 90
1024
280
0
281
0
  0
CLASS
  1
ACDBDETAILVIEWSTYLE
  2
AcDbDetailViewStyle
  3
ObjectDBX Classes
 90
1025
280
0
281
0
  0
CLASS
  1
ACDBSECTIONVIEWSTYLE
  2
AcDbSectionViewStyle
  3
ObjectDBX Classes
 90
1025
280
0
281
0
  0
CLASS
  1
RASTERVARIABLES
  2
AcDbRasterVariables
  3
ISM
 90
0
280
0
281
0
  0
CLASS
  1
ACDBPLACEHOLDER
  2
AcDbPlaceHolder
  3
ObjectDBX Classes
 90
0
280
0
281
0
  0
CLASS
  1
LAYOUT
  2
AcDbLayout
  3
ObjectDBX Classes
 90
0
280
0
281
0
  0
ENDSEC
  0
SECTION
  2
TABLES
  0
TABLE
  2
VPORT
  5
8
330
0
100
AcDbSymbolTable
 70
1
  0
VPORT
  5
23
330
8
100
AcDbSymbolTableRecord
100
AcDbViewportTableRecord
  2
*Active
 70
0
 10
0.0
 20
0.0
 11
1.0
 21
1.0
 12
0.0
 22
0.0
 13
0.0
 23
0.0
 14
0.5
 24
0.5
 15
0.5
 25
0.5
 16
0.0
 26
0.0
 36
1.0
 17
0.0
 27
0.0
 37
0.0
 40
1000.0
 41
1.34
 42
50.0
 43
0.0
 44
0.0
 50
0.0
 51
0.0
 71
0
 72
1000
 73
1
 74
3
 75
0
 76
0
 77
0
 78
0
281
0
 65
0
146
0.0
  0
ENDTAB
  0
TABLE
  2
LTYPE
  5
2
330
0
100
AcDbSymbolTable
 70
3
  0
LTYPE
  5
24
330
2
100
AcDbSymbolTableRecord
100
AcDbLinetypeTableRecord
  2
ByBlock
 70
0
  3

 72
65
 73
0
 40
0.0
  0
LTYPE
  5
25
330
2
100
AcDbSymbolTableRecord
100
AcDbLinetypeTableRecord
  2
ByLayer
 70
0
  3

 72
65
 73
0
 40
0.0
  0
LTYPE
  5
26
330
2
100
AcDbSymbolTableRecord
100
AcDbLinetypeTableRecord
  2
Continuous
 70
0
  3

 72
65
 73
0
 40
0.0
  0
ENDTAB
  0
TABLE
  2
LAYER
  5
1
330
0
100
AcDbSymbolTable
 70
2
  0
LAYER
  5
27
330
1
100
AcDbSymbolTableRecord
100
AcDbLayerTableRecord
  2
0
 70
0
 62
7
  6
Continuous
370
-3
390
13
  0
LAYER
  5
28
330
1
100
AcDbSymbolTableRecord
100
AcDbLayerTableRecord
  2
Defpoints
 70
0
 62
7
  6
Continuous
290
0
370
-3
390
13
  0
ENDTAB
  0
TABLE
  2
STYLE
  5
5
330
0
100
AcDbSymbolTable
 70
1
  0
STYLE
  5
29
330
5
100
AcDbSymbolTableRecord
100
AcDbTextStyleTableRecord
  2
Standard
 70
0
 40
0.0
 41
1.0
 50
0.0
 71
0
 42
2.5
  3
txt
  4

  0
ENDTAB
  0
TABLE
  2
VIEW
  5
7
330
0
100
AcDbSymbolTable
 70
0
  0
ENDTAB
  0
TABLE
  2
UCS
  5
6
330
0
100
AcDbSymbolTable
 70
0
  0
ENDTAB
  0
TABLE
  2
APPID
  5
3
330
0
100
AcDbSymbolTable
 70
3
  0
APPID
  5
2A
330
3
100
AcDbSymbolTableRecord
100
AcDbRegAppTableRecord
  2
ACAD
 70
0
  0
APPID
  5
36
330
3
100
AcDbSymbolTableRecord
100
AcDbRegAppTableRecord
  2
HATCHBACKGROUNDCOLOR
 70
0
  0
APPID
  5
37
330
3
100
AcDbSymbolTableRecord
100
AcDbRegAppTableRecord
  2
EZDXF
 70
0
  0
ENDTAB
  0
TABLE
  2
DIMSTYLE
  5
4
330
0
100
AcDbSymbolTable
 70
1
100
AcDbDimStyleTable
  0
DIMSTYLE
105
2B
330
4
100
AcDbSymbolTableRecord
100
AcDbDimStyleTableRecord
  2
Standard
 70
0
  3

  4

 40
1.0
 41
2.5
 42
0.625
 43
3.75
 44
1.25
 45
0.0
 46
0.0
 47
0.0
 48
0.0
140
2.5
141
2.5
142
0.0
143
0.03937007874
144
1.0
145
0.0
146
1.0
147
0.625
148
0.0
 71
0
 72
0
 73
0
 74
0
 75
0
 76
0
 77
1
 78
8
 79
3
170
0
171
3
172
1
173
0
174
0
175
0
176
0
177
0
178
0
179
2
271
2
272
2
273
2
274
3
275
0
276
0
277
2
278
44
279
0
280
0
281
0
282
0
283
0
284
8
285
0
286
0
288
0
289
3
371
-2
372
-2
  0
ENDTAB
  0
TABLE
  2
BLOCK_RECORD
  5
9
330
0
100
AcDbSymbolTable
 70
2
  0
BLOCK_RECORD
  5
17
330
9
100
AcDbSymbolTableRecord
100
AcDbBlockTableRecord
  2
*Model_Space
340
1A
  0
BLOCK_RECORD
  5
1B
330
9
100
AcDbSymbolTableRecord
100
AcDbBlockTableRecord
  2
*Paper_Space
340
1E
  0
ENDTAB
  0
ENDSEC
  0
SECTION
  2
BLOCKS
  0
BLOCK
  5
18
330
17
100
AcDbEntity
  8
0
100
AcDbBlockBegin
  2
*Model_Space
 70
0
 10
0.0
 20
0.0
 30
0.0
  3
*Model_Space
  1

  0
ENDBLK
  5
19
330
17
100
AcDbEntity
  8
0
100
AcDbBlockEnd
  0
BLOCK
  5
1C
330
1B
100
AcDbEntity
  8
0
100
AcDbBlockBegin
  2
*Paper_Space
 70
0
 10
0.0
 20
0.0
 30
0.0
  3
*Paper_Space
  1

  0
ENDBLK
  5
1D
330
1B
100
AcDbEntity
  8
0
100
AcDbBlockEnd
  0
ENDSEC
  0
SECTION
  2
ENTITIES
  0
LWPOLYLINE
  5
2F
330
17
100
AcDbEntity
  8
0
100
AcDbPolyline
 90
49
 70
0
 10
205.51724137931035
 20
14.344827586206895
 10
230.06896551724137
 20
14.344827586206895
 10
244.68965517241378
 20
18.206896551724135
 10
247.72413793103445
 20
21.241379310344826
 10
243.03448275862064
 20
24.827586206896548
 10
233.10344827586206
 20
28.413793103448274
 10
234.75862068965515
 20
32.275862068965516
 10
234.2068965517241
 20
55.172413793103445
 10
234.75862068965515
 20
56.27586206896551
 10
237.79310344827584
 20
56.27586206896551
 10
238.8965517241379
 20
57.10344827586206
 10
239.44827586206893
 20
61.51724137931034
 10
237.79310344827584
 20
63.44827586206896
 10
235.03448275862067
 20
63.44827586206896
 10
234.2068965517241
 20
62.34482758620689
 10
233.93103448275858
 20
68.68965517241378
 10
235.03448275862067
 20
71.44827586206895
 10
235.5862068965517
 20
79.72413793103448
 10
234.75862068965515
 20
87.17241379310344
 10
231.99999999999997
 20
89.93103448275862
 10
227.03448275862064
 20
90.48275862068965
 10
226.75862068965515
 20
248.82758620689654
 10
224.55172413793102
 20
251.31034482758616
 10
212.41379310344826
 20
251.31034482758616
 10
209.93103448275858
 20
249.65517241379308
 10
209.10344827586206
 20
245.2413793103448
 10
209.6551724137931
 20
243.8620689655172
 10
208.27586206896552
 20
233.10344827586206
 10
209.10344827586206
 20
226.75862068965515
 10
208.82758620689654
 20
211.31034482758616
 10
209.6551724137931
 20
210.48275862068965
 10
209.37931034482756
 20
101.79310344827586
 10
203.3103448275862
 20
100.9655172413793
 10
199.72413793103445
 20
97.37931034482759
 10
199.44827586206895
 20
93.51724137931033
 10
202.75862068965517
 20
89.6551724137931
 10
202.75862068965517
 20
88.27586206896551
 10
200.55172413793102
 20
85.51724137931035
 10
198.06896551724137
 20
77.24137931034483
 10
198.8965517241379
 20
73.10344827586206
 10
203.3103448275862
 20
69.24137931034483
 10
203.8620689655172
 20
44.41379310344827
 10
202.75862068965517
 20
42.48275862068965
 10
176.55172413793102
 20
35.58620689655172
 10
170.48275862068962
 20
29.241379310344822
 10
170.48275862068962
 20
28.137931034482754
 10
174.3448275862069
 20
23.72413793103448
 10
177.9310344827586
 20
21.51724137931034
 10
205.51724137931035
 20
14.344827586206895
  0
LWPOLYLINE
  5
30
330
17
100
AcDbEntity
  8
0
100
AcDbPolyline
 90
44
 70
0
 10
31.172413793103445
 20
48.82758620689655
 10
61.79310344827585
 20
49.37931034482758
 10
65.9310344827586
 20
49.93103448275861
 10
67.03448275862068
 20
51.03448275862069
 10
66.20689655172414
 20
66.75862068965516
 10
63.72413793103448
 20
87.44827586206895
 10
60.41379310344827
 20
107.31034482758619
 10
60.41379310344827
 20
110.89655172413792
 10
59.586206896551715
 20
111.99999999999999
 10
57.93103448275862
 20
121.10344827586205
 10
58.75862068965517
 20
129.37931034482756
 10
56.55172413793103
 20
141.24137931034483
 10
53.517241379310335
 20
151.17241379310343
 10
53.517241379310335
 20
153.3793103448276
 10
55.172413793103445
 20
155.5862068965517
 10
59.310344827586206
 20
179.03448275862067
 10
60.689655172413794
 20
198.8965517241379
 10
60.137931034482754
 20
200.82758620689654
 10
60.41379310344827
 20
211.03448275862067
 10
59.86206896551723
 20
216.8275862068965
 10
58.20689655172413
 20
225.65517241379305
 10
54.89655172413792
 20
232.2758620689655
 10
49.103448275862064
 20
236.41379310344826
 10
43.86206896551724
 20
237.24137931034483
 10
36.68965517241379
 20
236.13793103448273
 10
34.206896551724135
 20
235.03448275862067
 10
31.172413793103445
 20
232.551724137931
 10
28.413793103448274
 20
227.58620689655172
 10
27.034482758620687
 20
220.1379310344827
 10
27.310344827586206
 20
194.48275862068962
 10
28.413793103448274
 20
188.96551724137927
 10
28.137931034482754
 20
186.48275862068965
 10
29.241379310344822
 20
177.9310344827586
 10
34.75862068965517
 20
153.9310344827586
 10
36.96551724137931
 20
152.2758620689655
 10
32.82758620689655
 20
127.44827586206895
 10
32.82758620689655
 20
125.24137931034481
 10
33.93103448275862
 20
122.75862068965517
 10
33.37931034482758
 20
121.6551724137931
 10
31.448275862068964
 20
101.51724137931033
 10
29.793103448275858
 20
76.41379310344827
 10
29.241379310344822
 20
51.58620689655172
 10
29.793103448275858
 20
49.93103448275861
 10
31.172413793103445
 20
48.82758620689655
  0
LWPOLYLINE
  5
31
330
17
100
AcDbEntity
  8
0
100
AcDbPolyline
 90
60
 70
0
 10
159.72413793103445
 20
43.3103448275862
 10
160.55172413793102
 20
43.86206896551724
 10
161.10344827586204
 20
46.62068965517241
 10
161.3793103448276
 20
55.99999999999999
 10
162.48275862068962
 20
57.37931034482758
 10
164.68965517241378
 20
55.99999999999999
 10
166.89655172413794
 20
44.96551724137931
 10
167.72413793103448
 20
43.86206896551724
 10
168.55172413793102
 20
44.96551724137931
 10
170.75862068965515
 20
62.89655172413793
 10
175.44827586206895
 20
76.41379310344827
 10
179.03448275862067
 20
77.51724137931033
 10
180.41379310344826
 20
79.72413793103448
 10
180.68965517241375
 20
86.6206896551724
 10
181.79310344827584
 20
91.58620689655172
 10
185.9310344827586
 20
101.51724137931033
 10
191.72413793103445
 20
119.44827586206895
 10
195.5862068965517
 20
137.9310344827586
 10
199.17241379310343
 20
160.82758620689654
 10
198.8965517241379
 20
168.82758620689654
 10
196.13793103448273
 20
171.58620689655172
 10
193.65517241379308
 20
171.58620689655172
 10
191.72413793103445
 20
170.48275862068962
 10
189.24137931034483
 20
166.3448275862069
 10
179.3103448275862
 20
129.10344827586206
 10
168.82758620689654
 20
99.58620689655172
 10
167.72413793103448
 20
89.37931034482757
 10
162.20689655172413
 20
77.24137931034483
 10
161.10344827586204
 20
77.79310344827584
 10
155.5862068965517
 20
86.89655172413792
 10
153.65517241379308
 20
94.34482758620689
 10
139.86206896551724
 20
121.9310344827586
 10
133.51724137931032
 20
136.82758620689654
 10
123.86206896551722
 20
163.03448275862067
 10
119.72413793103446
 20
166.3448275862069
 10
116.68965517241378
 20
165.2413793103448
 10
114.75862068965516
 20
163.03448275862067
 10
114.48275862068965
 20
159.44827586206895
 10
116.13793103448275
 20
152.55172413793102
 10
115.86206896551724
 20
150.06896551724137
 10
117.24137931034483
 20
147.3103448275862
 10
117.24137931034483
 20
144.82758620689654
 10
118.62068965517241
 20
142.3448275862069
 10
119.72413793103446
 20
135.44827586206895
 10
121.6551724137931
 20
131.3103448275862
 10
121.6551724137931
 20
129.10344827586206
 10
124.41379310344827
 20
120.55172413793102
 10
133.79310344827584
 20
100.9655172413793
 10
134.06896551724137
 20
99.03448275862068
 10
137.10344827586206
 20
94.62068965517241
 10
138.48275862068965
 20
90.48275862068965
 10
141.24137931034483
 20
86.89655172413792
 10
142.8965517241379
 20
81.9310344827586
 10
144.2758620689655
 20
73.6551724137931
 10
145.65517241379308
 20
72.55172413793103
 10
149.51724137931032
 20
72.0
 10
152.55172413793102
 20
64.27586206896551
 10
155.03448275862067
 20
60.137931034482754
 10
156.68965517241378
 20
51.86206896551724
 10
159.72413793103445
 20
43.3103448275862
  0
LWPOLYLINE
  5
32
330
17
100
AcDbEntity
  8
0
100
AcDbPolyline
 90
60
 70
0
 10
144.0
 20
127.17241379310344
 10
146.20689655172413
 20
129.37931034482756
 10
146.75862068965515
 20
133.51724137931032
 10
148.41379310344826
 20
136.2758620689655
 10
156.68965517241378
 20
160.55172413793102
 10
158.06896551724137
 20
162.48275862068962
 10
161.3793103448276
 20
161.9310344827586
 10
172.41379310344826
 20
129.37931034482756
 10
174.3448275862069
 20
127.44827586206895
 10
175.17241379310343
 20
127.99999999999997
 10
174.8965517241379
 20
135.17241379310343
 10
171.8620689655172
 20
157.24137931034483
 10
167.72413793103448
 20
170.48275862068962
 10
172.9655172413793
 20
183.17241379310343
 10
175.99999999999997
 20
182.62068965517238
 10
187.3103448275862
 20
194.48275862068962
 10
194.75862068965517
 20
203.3103448275862
 10
199.99999999999997
 20
212.41379310344826
 10
204.13793103448276
 20
225.65517241379305
 10
205.2413793103448
 20
232.8275862068965
 10
204.68965517241378
 20
244.68965517241378
 10
203.3103448275862
 20
247.44827586206895
 10
199.72413793103445
 20
250.48275862068962
 10
197.2413793103448
 20
250.20689655172413
 10
195.8620689655172
 20
248.82758620689654
 10
194.48275862068962
 20
245.2413793103448
 10
193.65517241379308
 20
229.2413793103448
 10
188.96551724137927
 20
215.17241379310343
 10
183.72413793103448
 20
207.1724137931034
 10
173.51724137931032
 20
197.79310344827584
 10
171.58620689655172
 20
194.2068965517241
 10
166.3448275862069
 20
190.06896551724137
 10
163.03448275862067
 20
182.3448275862069
 10
155.5862068965517
 20
182.3448275862069
 10
152.82758620689654
 20
189.51724137931032
 10
145.65517241379308
 20
194.48275862068962
 10
144.55172413793102
 20
196.68965517241378
 10
136.55172413793102
 20
203.58620689655172
 10
131.0344827586207
 20
209.93103448275858
 10
126.89655172413792
 20
217.65517241379308
 10
124.13793103448275
 20
225.9310344827586
 10
122.75862068965517
 20
243.3103448275862
 10
121.6551724137931
 20
247.1724137931034
 10
120.0
 20
248.2758620689655
 10
117.24137931034483
 20
247.72413793103445
 10
112.55172413793102
 20
241.9310344827586
 10
111.99999999999999
 20
230.8965517241379
 10
113.10344827586206
 20
223.72413793103445
 10
115.5862068965517
 20
215.44827586206893
 10
119.44827586206895
 20
207.1724137931034
 10
127.17241379310344
 20
196.13793103448273
 10
142.8965517241379
 20
180.68965517241375
 10
145.9310344827586
 20
181.79310344827584
 10
148.41379310344826
 20
177.10344827586206
 10
149.51724137931032
 20
171.58620689655172
 10
150.8965517241379
 20
170.20689655172413
 10
149.51724137931032
 20
167.44827586206895
 10
146.48275862068965
 20
155.03448275862067
 10
143.72413793103448
 20
131.8620689655172
 10
144.0
 20
127.17241379310344
  0
LWPOLYLINE
  5
33
330
17
100
AcDbEntity
  8
0
100
AcDbPolyline
 90
67
 70
0
 10
85.79310344827586
 20
57.655172413793096
 10
87.44827586206895
 20
59.310344827586206
 10
92.41379310344826
 20
61.79310344827585
 10
94.06896551724137
 20
60.9655172413793
 10
97.9310344827586
 20
61.24137931034482
 10
99.58620689655172
 20
63.17241379310344
 10
99.58620689655172
 20
67.86206896551724
 10
95.17241379310343
 20
83.31034482758619
 10
91.58620689655172
 20
93.51724137931033
 10
87.72413793103448
 20
112.27586206896551
 10
84.9655172413793
 20
121.6551724137931
 10
83.58620689655172
 20
130.48275862068965
 10
83.86206896551724
 20
132.13793103448273
 10
83.31034482758619
 20
133.51724137931032
 10
81.6551724137931
 20
158.8965517241379
 10
81.6551724137931
 20
173.79310344827584
 10
82.20689655172413
 20
174.62068965517238
 10
81.9310344827586
 20
177.65517241379308
 10
82.48275862068965
 20
178.75862068965515
 10
82.20689655172413
 20
183.72413793103448
 10
82.75862068965517
 20
185.65517241379308
 10
82.20689655172413
 20
187.03448275862067
 10
82.75862068965517
 20
188.13793103448273
 10
82.48275862068965
 20
195.03448275862067
 10
83.03448275862068
 20
196.13793103448273
 10
83.03448275862068
 20
220.1379310344827
 10
82.20689655172413
 20
222.34482758620686
 10
82.75862068965517
 20
226.75862068965515
 10
82.20689655172413
 20
227.58620689655172
 10
81.9310344827586
 20
231.44827586206893
 10
79.72413793103448
 20
232.551724137931
 10
78.34482758620689
 20
232.551724137931
 10
76.41379310344827
 20
230.8965517241379
 10
76.6896551724138
 20
225.9310344827586
 10
76.13793103448275
 20
225.37931034482756
 10
76.41379310344827
 20
191.17241379310343
 10
75.3103448275862
 20
167.17241379310343
 10
74.75862068965516
 20
164.68965517241378
 10
74.75862068965516
 20
148.9655172413793
 10
76.13793103448275
 20
133.2413793103448
 10
75.86206896551724
 20
131.3103448275862
 10
78.06896551724138
 20
118.89655172413792
 10
81.10344827586206
 20
107.31034482758619
 10
82.20689655172413
 20
97.10344827586205
 10
81.6551724137931
 20
96.55172413793102
 10
78.89655172413792
 20
97.37931034482759
 10
76.9655172413793
 20
96.82758620689654
 10
72.27586206896551
 20
97.10344827586205
 10
71.44827586206895
 20
96.27586206896551
 10
71.17241379310344
 20
94.62068965517241
 10
71.44827586206895
 20
91.86206896551724
 10
72.27586206896551
 20
90.48275862068965
 10
72.82758620689654
 20
84.9655172413793
 10
74.75862068965516
 20
82.75862068965517
 10
74.75862068965516
 20
80.82758620689654
 10
75.58620689655172
 20
79.44827586206895
 10
75.3103448275862
 20
77.79310344827584
 10
76.9655172413793
 20
75.86206896551724
 10
76.6896551724138
 20
74.20689655172413
 10
78.89655172413792
 20
69.51724137931033
 10
78.89655172413792
 20
66.20689655172414
 10
79.72413793103448
 20
65.37931034482757
 10
79.72413793103448
 20
63.72413793103448
 10
81.37931034482759
 20
60.9655172413793
 10
81.9310344827586
 20
58.482758620689644
 10
83.31034482758619
 20
57.655172413793096
 10
85.79310344827586
 20
57.655172413793096
  0
LWPOLYLINE
  5
34
330
17
100
AcDbEntity
  8
0
100
AcDbPolyline
 90
52
 70
0
 10
18.482758620689655
 20
27.034482758620687
 10
19.034482758620687
 20
21.79310344827586
 10
20.96551724137931
 20
20.413793103448274
 10
24.275862068965512
 20
20.96551724137931
 10
29.51724137931034
 20
20.689655172413794
 10
30.62068965517241
 20
21.241379310344826
 10
31.72413793103448
 20
20.689655172413794
 10
59.586206896551715
 20
20.689655172413794
 10
84.9655172413793
 20
21.241379310344826
 10
101.79310344827586
 20
21.241379310344826
 10
106.20689655172413
 20
20.689655172413794
 10
129.37931034482756
 20
21.241379310344826
 10
132.9655172413793
 20
22.620689655172413
 10
136.55172413793102
 20
23.172413793103445
 10
138.48275862068965
 20
25.103448275862068
 10
143.17241379310343
 20
25.103448275862068
 10
146.48275862068965
 20
24.0
 10
150.8965517241379
 20
20.96551724137931
 10
152.55172413793102
 20
20.689655172413794
 10
154.75862068965517
 20
21.241379310344826
 10
155.5862068965517
 20
22.344827586206893
 10
154.48275862068965
 20
23.44827586206896
 10
152.82758620689654
 20
23.44827586206896
 10
149.79310344827584
 20
24.275862068965512
 10
148.41379310344826
 20
25.6551724137931
 10
147.86206896551724
 20
27.034482758620687
 10
145.37931034482756
 20
28.68965517241379
 10
138.20689655172413
 20
29.241379310344822
 10
136.55172413793102
 20
30.344827586206897
 10
129.9310344827586
 20
32.55172413793103
 10
110.6206896551724
 20
32.82758620689655
 10
96.27586206896551
 20
31.999999999999993
 10
91.86206896551724
 20
32.275862068965516
 10
75.86206896551724
 20
31.72413793103448
 10
70.06896551724137
 20
32.275862068965516
 10
70.06896551724137
 20
32.82758620689655
 10
70.89655172413792
 20
33.655172413793096
 10
70.89655172413792
 20
34.75862068965517
 10
69.51724137931033
 20
36.137931034482754
 10
68.41379310344827
 20
36.137931034482754
 10
64.82758620689656
 20
34.206896551724135
 10
63.17241379310344
 20
33.93103448275862
 10
52.68965517241379
 20
33.93103448275862
 10
51.86206896551724
 20
34.75862068965517
 10
50.75862068965517
 20
34.206896551724135
 10
28.96551724137931
 20
34.48275862068965
 10
27.586206896551722
 20
33.10344827586207
 10
26.20689655172414
 20
30.62068965517241
 10
23.172413793103445
 20
30.62068965517241
 10
20.413793103448274
 20
30.068965517241377
 10
19.310344827586206
 20
28.96551724137931
 10
18.482758620689655
 20
27.034482758620687
  0
LWPOLYLINE
  5
35
330
17
100
AcDbEntity
  8
0
100
AcDbPolyline
 90
51
 70
0
 10
115.03448275862068
 20
77.79310344827584
 10
117.79310344827584
 20
79.44827586206895
 10
113.9310344827586
 20
106.48275862068965
 10
113.9310344827586
 20
108.9655172413793
 10
114.48275862068965
 20
110.06896551724135
 10
113.6551724137931
 20
111.44827586206894
 10
114.20689655172411
 20
112.55172413793102
 10
113.6551724137931
 20
118.34482758620688
 10
112.55172413793102
 20
120.55172413793102
 10
112.55172413793102
 20
121.6551724137931
 10
110.89655172413792
 20
123.03448275862068
 10
110.6206896551724
 20
126.89655172413792
 10
110.06896551724135
 20
128.55172413793102
 10
108.41379310344826
 20
142.06896551724137
 10
108.13793103448275
 20
148.13793103448273
 10
107.03448275862067
 20
153.65517241379308
 10
105.9310344827586
 20
167.72413793103448
 10
105.10344827586206
 20
170.75862068965515
 10
105.10344827586206
 20
174.06896551724137
 10
103.17241379310344
 20
186.75862068965515
 10
103.44827586206897
 20
187.3103448275862
 10
102.6206896551724
 20
191.44827586206895
 10
102.34482758620689
 20
196.96551724137927
 10
100.68965517241378
 20
206.3448275862069
 10
99.31034482758619
 20
220.41379310344826
 10
98.48275862068964
 20
222.62068965517238
 10
98.48275862068964
 20
224.55172413793102
 10
97.37931034482759
 20
225.9310344827586
 10
92.68965517241378
 20
225.9310344827586
 10
91.03448275862067
 20
225.37931034482756
 10
90.20689655172413
 20
223.72413793103445
 10
93.51724137931033
 20
198.34482758620686
 10
93.51724137931033
 20
191.17241379310343
 10
95.72413793103448
 20
175.99999999999997
 10
96.0
 20
169.9310344827586
 10
96.82758620689654
 20
166.89655172413794
 10
97.37931034482759
 20
158.6206896551724
 10
98.75862068965516
 20
154.75862068965517
 10
99.58620689655172
 20
145.10344827586206
 10
101.79310344827586
 20
129.10344827586206
 10
101.51724137931033
 20
124.13793103448275
 10
102.06896551724138
 20
120.55172413793102
 10
100.68965517241378
 20
119.17241379310343
 10
101.51724137931033
 20
108.9655172413793
 10
102.34482758620689
 20
107.03448275862067
 10
102.34482758620689
 20
103.72413793103448
 10
104.2758620689655
 20
92.68965517241378
 10
105.65517241379308
 20
78.34482758620689
 10
106.75862068965516
 20
77.24137931034483
 10
112.27586206896551
 20
78.06896551724138
 10
115.03448275862068
 20
77.79310344827584
  0
ENDSEC
  0
SECTION
  2
OBJECTS
  0
DICTIONARY
  5
A
330
0
100
AcDbDictionary
280
0
281
1
  3
ACAD_COLOR
350
B
  3
ACAD_GROUP
350
C
  3
ACAD_LAYOUT
350
D
  3
ACAD_MATERIAL
350
E
  3
ACAD_MLEADERSTYLE
350
F
  3
ACAD_MLINESTYLE
350
10
  3
ACAD_PLOTSETTINGS
350
11
  3
ACAD_PLOTSTYLENAME
350
12
  3
ACAD_SCALELIST
350
14
  3
ACAD_TABLESTYLE
350
15
  3
ACAD_VISUALSTYLE
350
16
  3
EZDXF_META
350
2D
  0
DICTIONARY
  5
B
330
A
100
AcDbDictionary
280
0
281
1
  0
DICTIONARY
  5
C
330
A
100
AcDbDictionary
280
0
281
1
  0
DICTIONARY
  5
D
330
A
100
AcDbDictionary
280
0
281
1
  3
Model
350
1A
  3
Layout1
350
1E
  0
DICTIONARY
  5
E
330
A
100
AcDbDictionary
280
0
281
1
  3
ByBlock
350
1F
  3
ByLayer
350
20
  3
Global
350
21
  0
DICTIONARY
  5
F
330
A
100
AcDbDictionary
280
0
281
1
  3
Standard
350
2C
  0
DICTIONARY
  5
10
330
A
100
AcDbDictionary
280
0
281
1
  3
Standard
350
22
  0
DICTIONARY
  5
11
330
A
100
AcDbDictionary
280
0
281
1
  0
ACDBDICTIONARYWDFLT
  5
12
330
A
100
AcDbDictionary
280
0
281
1
  3
Normal
350
13
100
AcDbDictionaryWithDefault
340
13
  0
ACDBPLACEHOLDER
  5
13
330
12
  0
DICTIONARY
  5
14
330
A
100
AcDbDictionary
280
0
281
1
  0
DICTIONARY
  5
15
330
A
100
AcDbDictionary
280
0
281
1
  0
DICTIONARY
  5
16
330
A
100
AcDbDictionary
280
0
281
1
  0
LAYOUT
  5
1A
330
D
100
AcDbPlotSettings
  1

  2
Adobe PDF
  4
A3
  6

 40
7.5
 41
20.0
 42
7.5
 43
20.0
 44
420.0
 45
297.0
 46
0.0
 47
0.0
 48
0.0
 49
0.0
140
0.0
141
0.0
142
1.0
143
1.0
 70
1024
 72
1
 73
0
 74
5
  7

 75
16
 76
0
 77
2
 78
300
147
1.0
148
0.0
149
0.0
100
AcDbLayout
  1
Model
 70
1
 71
0
 10
0.0
 20
0.0
 11
420.0
 21
297.0
 12
0.0
 22
0.0
 32
0.0
 14
1e+20
 24
1e+20
 34
1e+20
 15
-1e+20
 25
-1e+20
 35
-1e+20
146
0.0
 13
0.0
 23
0.0
 33
0.0
 16
1.0
 26
0.0
 36
0.0
 17
0.0
 27
1.0
 37
0.0
 76
1
330
17
  0
LAYOUT
  5
1E
330
D
100
AcDbPlotSettings
  1

  2
Adobe PDF
  4
A3
  6

 40
7.5
 41
20.0
 42
7.5
 43
20.0
 44
420.0
 45
297.0
 46
0.0
 47
0.0
 48
0.0
 49
0.0
140
0.0
141
0.0
142
1.0
143
1.0
 70
0
 72
1
 73
0
 74
5
  7

 75
16
 76
0
 77
2
 78
300
147
1.0
148
0.0
149
0.0
100
AcDbLayout
  1
Layout1
 70
1
 71
1
 10
0.0
 20
0.0
 11
420.0
 21
297.0
 12
0.0
 22
0.0
 32
0.0
 14
1e+20
 24
1e+20
 34
1e+20
 15
-1e+20
 25
-1e+20
 35
-1e+20
146
0.0
 13
0.0
 23
0.0
 33
0.0
 16
1.0
 26
0.0
 36
0.0
 17
0.0
 27
1.0
 37
0.0
 76
1
330
1B
  0
MATERIAL
  5
1F
102
{ACAD_REACTORS
330
E
102
}
330
E
100
AcDbMaterial
  1
ByBlock
  2

 70
0
 40
1.0
 71
1
 41
1.0
 91
-1023410177
 42
1.0
 72
1
  3

 73
1
 74
1
 75
1
 44
0.5
 73
0
 45
1.0
 46
1.0
 77
1
  4

 78
1
 79
1
170
1
 48
1.0
171
1
  6

172
1
173
1
174
1
140
1.0
141
1.0
175
1
  7

176
1
177
1
178
1
143
1.0
179
1
  8

270
1
271
1
272
1
145
1.0
146
1.0
273
1
  9

274
1
275
1
276
1
 42
1.0
 72
1
  3

 73
1
 74
1
 75
1
 94
63
  0
MATERIAL
  5
20
102
{ACAD_REACTORS
330
E
102
}
330
E
100
AcDbMaterial
  1
ByLayer
  2

 70
0
 40
1.0
 71
1
 41
1.0
 91
-1023410177
 42
1.0
 72
1
  3

 73
1
 74
1
 75
1
 44
0.5
 73
0
 45
1.0
 46
1.0
 77
1
  4

 78
1
 79
1
170
1
 48
1.0
171
1
  6

172
1
173
1
174
1
140
1.0
141
1.0
175
1
  7

176
1
177
1
178
1
143
1.0
179
1
  8

270
1
271
1
272
1
145
1.0
146
1.0
273
1
  9

274
1
275
1
276
1
 42
1.0
 72
1
  3

 73
1
 74
1
 75
1
 94
63
  0
MATERIAL
  5
21
102
{ACAD_REACTORS
330
E
102
}
330
E
100
AcDbMaterial
  1
Global
  2

 70
0
 40
1.0
 71
1
 41
1.0
 91
-1023410177
 42
1.0
 72
1
  3

 73
1
 74
1
 75
1
 44
0.5
 73
0
 45
1.0
 46
1.0
 77
1
  4

 78
1
 79
1
170
1
 48
1.0
171
1
  6

172
1
173
1
174
1
140
1.0
141
1.0
175
1
  7

176
1
177
1
178
1
143
1.0
179
1
  8

270
1
271
1
272
1
145
1.0
146
1.0
273
1
  9

274
1
275
1
276
1
 42
1.0
 72
1
  3

 73
1
 74
1
 75
1
 94
63
  0
MLINESTYLE
  5
22
102
{ACAD_REACTORS
330
10
102
}
330
10
100
AcDbMlineStyle
  2
Standard
 70
0
  3

 62
256
 51
90.0
 52
90.0
 71
2
 49
0.5
 62
256
  6
BYLAYER
 49
-0.5
 62
256
  6
BYLAYER
  0
MLEADERSTYLE
  5
2C
102
{ACAD_REACTORS
330
F
102
}
330
F
100
AcDbMLeaderStyle
179
2
170
2
171
1
172
0
 90
2
 40
0.0
 41
0.0
173
1
 91
-1056964608
 92
-2
290
1
 42
2.0
291
1
 43
8.0
  3
Standard
 44
4.0
300

342
29
174
1
175
1
176
0
178
1
 93
-1056964608
 45
4.0
292
0
297
0
 46
4.0
 94
-1056964608
 47
1.0
 49
1.0
140
1.0
294
1
141
0.0
177
0
142
1.0
295
0
296
0
143
3.75
271
0
272
9
273
9
  0
DICTIONARY
  5
2D
330
A
100
AcDbDictionary
281
1
  3
CREATED_BY_EZDXF
350
2E
  3
WRITTEN_BY_EZDXF
350
38
  0
DICTIONARYVAR
  5
2E
330
2D
100
DictionaryVariables
280
0
  1
1.3.0 @ 2024-05-07T14:19:34.500804+00:00
  0
DICTIONARYVAR
  5
38
330
2D
100
DictionaryVariables
280
0
  1
1.3.0 @ 2024-05-07T14:19:34.505344+00:00
  0
ENDSEC
  0
EOF
