  0
SECTION
  2
HEADER
  9
$ACADVER
  1
AC1015
  9
$ACADMAINTVER
 70
6
  9
$DWGCODEPAGE
  3
ANSI_1252
  9
$INSBASE
 10
0.0
 20
0.0
 30
0.0
  9
$EXTMIN
 10
1e+20
 20
1e+20
 30
1e+20
  9
$EXTMAX
 10
-1e+20
 20
-1e+20
 30
-1e+20
  9
$LIMMIN
 10
0.0
 20
0.0
  9
$LIMMAX
 10
420.0
 20
297.0
  9
$ORTHOMODE
 70
0
  9
$REGENMODE
 70
1
  9
$FILLMODE
 70
1
  9
$QTEXTMODE
 70
0
  9
$MIRRTEXT
 70
1
  9
$LTSCALE
 40
1.0
  9
$ATTMODE
 70
1
  9
$TEXTSIZE
 40
2.5
  9
$TRACEWID
 40
1.0
  9
$TEXTSTYLE
  7
Standard
  9
$CLAYER
  8
0
  9
$CELTYPE
  6
ByLayer
  9
$CECOLOR
 62
256
  9
$CELTSCALE
 40
1.0
  9
$DISPSILH
 70
0
  9
$DIMSCALE
 40
1.0
  9
$DIMASZ
 40
2.5
  9
$DIMEXO
 40
0.625
  9
$DIMDLI
 40
3.75
  9
$DIMRND
 40
0.0
  9
$DIMDLE
 40
0.0
  9
$DIMEXE
 40
1.25
  9
$DIMTP
 40
0.0
  9
$DIMTM
 40
0.0
  9
$DIMTXT
 40
2.5
  9
$DIMCEN
 40
2.5
  9
$DIMTSZ
 40
0.0
  9
$DIMTOL
 70
0
  9
$DIMLIM
 70
0
  9
$DIMTIH
 70
0
  9
$DIMTOH
 70
0
  9
$DIMSE1
 70
0
  9
$DIMSE2
 70
0
  9
$DIMTAD
 70
1
  9
$DIMZIN
 70
8
  9
$DIMBLK
  1

  9
$DIMASO
 70
1
  9
$DIMSHO
 70
1
  9
$DIMPOST
  1

  9
$DIMAPOST
  1

  9
$DIMALT
 70
0
  9
$DIMALTD
 70
3
  9
$DIMALTF
 40
0.03937007874
  9
$DIMLFAC
 40
1.0
  9
$DIMTOFL
 70
1
  9
$DIMTVP
 40
0.0
  9
$DIMTIX
 70
0
  9
$DIMSOXD
 70
0
  9
$DIMSAH
 70
0
  9
$DIMBLK1
  1

  9
$DIMBLK2
  1

  9
$DIMSTYLE
  2
ISO-25
  9
$DIMCLRD
 70
0
  9
$DIMCLRE
 70
0
  9
$DIMCLRT
 70
0
  9
$DIMTFAC
 40
1.0
  9
$DIMGAP
 40
0.625
  9
$DIMJUST
 70
0
  9
$DIMSD1
 70
0
  9
$DIMSD2
 70
0
  9
$DIMTOLJ
 70
0
  9
$DIMTZIN
 70
8
  9
$DIMALTZ
 70
0
  9
$DIMALTTZ
 70
0
  9
$DIMUPT
 70
0
  9
$DIMDEC
 70
2
  9
$DIMTDEC
 70
2
  9
$DIMALTU
 70
2
  9
$DIMALTTD
 70
3
  9
$DIMTXSTY
  7
Standard
  9
$DIMAUNIT
 70
0
  9
$DIMADEC
 70
0
  9
$DIMALTRND
 40
0.0
  9
$DIMAZIN
 70
0
  9
$DIMDSEP
 70
44
  9
$DIMATFIT
 70
3
  9
$DIMFRAC
 70
0
  9
$DIMLDRBLK
  1

  9
$DIMLUNIT
 70
2
  9
$DIMLWD
 70
-2
  9
$DIMLWE
 70
-2
  9
$DIMTMOVE
 70
0
  9
$LUNITS
 70
2
  9
$LUPREC
 70
4
  9
$SKETCHINC
 40
1.0
  9
$FILLETRAD
 40
10.0
  9
$AUNITS
 70
0
  9
$AUPREC
 70
2
  9
$MENU
  1
.
  9
$ELEVATION
 40
0.0
  9
$PELEVATION
 40
0.0
  9
$THICKNESS
 40
0.0
  9
$LIMCHECK
 70
0
  9
$CHAMFERA
 40
0.0
  9
$CHAMFERB
 40
0.0
  9
$CHAMFERC
 40
0.0
  9
$CHAMFERD
 40
0.0
  9
$SKPOLY
 70
0
  9
$TDCREATE
 40
2460438.978460648
  9
$TDUCREATE
 40
2458532.153996898
  9
$TDUPDATE
 40
2460438.978460648
  9
$TDUUPDATE
 40
2458532.1544311
  9
$TDINDWG
 40
0.0
  9
$TDUSRTIMER
 40
0.0
  9
$USRTIMER
 70
1
  9
$ANGBASE
 50
0.0
  9
$ANGDIR
 70
0
  9
$PDMODE
 70
0
  9
$PDSIZE
 40
0.0
  9
$PLINEWID
 40
0.0
  9
$SPLFRAME
 70
0
  9
$SPLINETYPE
 70
6
  9
$SPLINESEGS
 70
8
  9
$HANDSEED
  5
37
  9
$SURFTAB1
 70
6
  9
$SURFTAB2
 70
6
  9
$SURFTYPE
 70
6
  9
$SURFU
 70
6
  9
$SURFV
 70
6
  9
$UCSBASE
  2

  9
$UCSNAME
  2

  9
$UCSORG
 10
0.0
 20
0.0
 30
0.0
  9
$UCSXDIR
 10
1.0
 20
0.0
 30
0.0
  9
$UCSYDIR
 10
0.0
 20
1.0
 30
0.0
  9
$UCSORTHOREF
  2

  9
$UCSORTHOVIEW
 70
0
  9
$UCSORGTOP
 10
0.0
 20
0.0
 30
0.0
  9
$UCSORGBOTTOM
 10
0.0
 20
0.0
 30
0.0
  9
$UCSORGLEFT
 10
0.0
 20
0.0
 30
0.0
  9
$UCSORGRIGHT
 10
0.0
 20
0.0
 30
0.0
  9
$UCSORGFRONT
 10
0.0
 20
0.0
 30
0.0
  9
$UCSORGBACK
 10
0.0
 20
0.0
 30
0.0
  9
$PUCSBASE
  2

  9
$PUCSNAME
  2

  9
$PUCSORG
 10
0.0
 20
0.0
 30
0.0
  9
$PUCSXDIR
 10
1.0
 20
0.0
 30
0.0
  9
$PUCSYDIR
 10
0.0
 20
1.0
 30
0.0
  9
$PUCSORTHOREF
  2

  9
$PUCSORTHOVIEW
 70
0
  9
$PUCSORGTOP
 10
0.0
 20
0.0
 30
0.0
  9
$PUCSORGBOTTOM
 10
0.0
 20
0.0
 30
0.0
  9
$PUCSORGLEFT
 10
0.0
 20
0.0
 30
0.0
  9
$PUCSORGRIGHT
 10
0.0
 20
0.0
 30
0.0
  9
$PUCSORGFRONT
 10
0.0
 20
0.0
 30
0.0
  9
$PUCSORGBACK
 10
0.0
 20
0.0
 30
0.0
  9
$USERI1
 70
0
  9
$USERI2
 70
0
  9
$USERI3
 70
0
  9
$USERI4
 70
0
  9
$USERI5
 70
0
  9
$USERR1
 40
0.0
  9
$USERR2
 40
0.0
  9
$USERR3
 40
0.0
  9
$USERR4
 40
0.0
  9
$USERR5
 40
0.0
  9
$WORLDVIEW
 70
1
  9
$SHADEDGE
 70
3
  9
$SHADEDIF
 70
70
  9
$TILEMODE
 70
1
  9
$MAXACTVP
 70
64
  9
$PINSBASE
 10
0.0
 20
0.0
 30
0.0
  9
$PLIMCHECK
 70
0
  9
$PEXTMIN
 10
1e+20
 20
1e+20
 30
1e+20
  9
$PEXTMAX
 10
-1e+20
 20
-1e+20
 30
-1e+20
  9
$PLIMMIN
 10
0.0
 20
0.0
  9
$PLIMMAX
 10
420.0
 20
297.0
  9
$UNITMODE
 70
0
  9
$VISRETAIN
 70
1
  9
$PLINEGEN
 70
0
  9
$PSLTSCALE
 70
1
  9
$TREEDEPTH
 70
3020
  9
$CMLSTYLE
  2
Standard
  9
$CMLJUST
 70
0
  9
$CMLSCALE
 40
20.0
  9
$PROXYGRAPHICS
 70
1
  9
$MEASUREMENT
 70
1
  9
$CELWEIGHT
370
-1
  9
$ENDCAPS
280
0
  9
$JOINSTYLE
280
0
  9
$LWDISPLAY
290
0
  9
$INSUNITS
 70
4
  9
$HYPERLINKBASE
  1

  9
$STYLESHEET
  1

  9
$XEDIT
290
1
  9
$CEPSNTYPE
380
0
  9
$PSTYLEMODE
290
1
  9
$FINGERPRINTGUID
  2
{FD5AF7A8-2518-4BC6-9281-DF5C0072597C}
  9
$VERSIONGUID
  2
{783BE4A3-92C1-4DA3-AD03-A584054BADD6}
  9
$EXTNAMES
290
1
  9
$PSVPSCALE
 40
0.0
  9
$OLESTARTUP
290
0
  0
ENDSEC
  0
SECTION
  2
CLASSES
  0
CLASS
  1
ACDBDICTIONARYWDFLT
  2
AcDbDictionaryWithDefault
  3
ObjectDBX Classes
 90
0
280
0
281
0
  0
CLASS
  1
SUN
  2
AcDbSun
  3
SCENEOE
 90
1153
280
0
281
0
  0
CLASS
  1
VISUALSTYLE
  2
AcDbVisualStyle
  3
ObjectDBX Classes
 90
4095
280
0
281
0
  0
CLASS
  1
MATERIAL
  2
AcDbMaterial
  3
ObjectDBX Classes
 90
1153
280
0
281
0
  0
CLASS
  1
SCALE
  2
AcDbScale
  3
ObjectDBX Classes
 90
1153
280
0
281
0
  0
CLASS
  1
TABLESTYLE
  2
AcDbTableStyle
  3
ObjectDBX Classes
 90
4095
280
0
281
0
  0
CLASS
  1
MLEADERSTYLE
  2
AcDbMLeaderStyle
  3
ACDB_MLEADERSTYLE_CLASS
 90
4095
280
0
281
0
  0
CLASS
  1
DICTIONARYVAR
  2
AcDbDictionaryVar
  3
ObjectDBX Classes
 90
0
280
0
281
0
  0
CLASS
  1
CELLSTYLEMAP
  2
AcDbCellStyleMap
  3
ObjectDBX Classes
 90
1152
280
0
281
0
  0
CLASS
  1
MENTALRAYRENDERSETTINGS
  2
AcDbMentalRayRenderSettings
  3
SCENEOE
 90
1024
280
0
281
0
  0
CLASS
  1
ACDBDETAILVIEWSTYLE
  2
AcDbDetailViewStyle
  3
ObjectDBX Classes
 90
1025
280
0
281
0
  0
CLASS
  1
ACDBSECTIONVIEWSTYLE
  2
AcDbSectionViewStyle
  3
ObjectDBX Classes
 90
1025
280
0
281
0
  0
CLASS
  1
RASTERVARIABLES
  2
AcDbRasterVariables
  3
ISM
 90
0
280
0
281
0
  0
CLASS
  1
ACDBPLACEHOLDER
  2
AcDbPlaceHolder
  3
ObjectDBX Classes
 90
0
280
0
281
0
  0
CLASS
  1
LAYOUT
  2
AcDbLayout
  3
ObjectDBX Classes
 90
0
280
0
281
0
  0
ENDSEC
  0
SECTION
  2
TABLES
  0
TABLE
  2
VPORT
  5
8
330
0
100
AcDbSymbolTable
 70
1
  0
VPORT
  5
23
330
8
100
AcDbSymbolTableRecord
100
AcDbViewportTableRecord
  2
*Active
 70
0
 10
0.0
 20
0.0
 11
1.0
 21
1.0
 12
0.0
 22
0.0
 13
0.0
 23
0.0
 14
0.5
 24
0.5
 15
0.5
 25
0.5
 16
0.0
 26
0.0
 36
1.0
 17
0.0
 27
0.0
 37
0.0
 40
1000.0
 41
1.34
 42
50.0
 43
0.0
 44
0.0
 50
0.0
 51
0.0
 71
0
 72
1000
 73
1
 74
3
 75
0
 76
0
 77
0
 78
0
281
0
 65
0
146
0.0
  0
ENDTAB
  0
TABLE
  2
LTYPE
  5
2
330
0
100
AcDbSymbolTable
 70
3
  0
LTYPE
  5
24
330
2
100
AcDbSymbolTableRecord
100
AcDbLinetypeTableRecord
  2
ByBlock
 70
0
  3

 72
65
 73
0
 40
0.0
  0
LTYPE
  5
25
330
2
100
AcDbSymbolTableRecord
100
AcDbLinetypeTableRecord
  2
ByLayer
 70
0
  3

 72
65
 73
0
 40
0.0
  0
LTYPE
  5
26
330
2
100
AcDbSymbolTableRecord
100
AcDbLinetypeTableRecord
  2
Continuous
 70
0
  3

 72
65
 73
0
 40
0.0
  0
ENDTAB
  0
TABLE
  2
LAYER
  5
1
330
0
100
AcDbSymbolTable
 70
2
  0
LAYER
  5
27
330
1
100
AcDbSymbolTableRecord
100
AcDbLayerTableRecord
  2
0
 70
0
 62
7
  6
Continuous
370
-3
390
13
  0
LAYER
  5
28
330
1
100
AcDbSymbolTableRecord
100
AcDbLayerTableRecord
  2
Defpoints
 70
0
 62
7
  6
Continuous
290
0
370
-3
390
13
  0
ENDTAB
  0
TABLE
  2
STYLE
  5
5
330
0
100
AcDbSymbolTable
 70
1
  0
STYLE
  5
29
330
5
100
AcDbSymbolTableRecord
100
AcDbTextStyleTableRecord
  2
Standard
 70
0
 40
0.0
 41
1.0
 50
0.0
 71
0
 42
2.5
  3
txt
  4

  0
ENDTAB
  0
TABLE
  2
VIEW
  5
7
330
0
100
AcDbSymbolTable
 70
0
  0
ENDTAB
  0
TABLE
  2
UCS
  5
6
330
0
100
AcDbSymbolTable
 70
0
  0
ENDTAB
  0
TABLE
  2
APPID
  5
3
330
0
100
AcDbSymbolTable
 70
3
  0
APPID
  5
2A
330
3
100
AcDbSymbolTableRecord
100
AcDbRegAppTableRecord
  2
ACAD
 70
0
  0
APPID
  5
34
330
3
100
AcDbSymbolTableRecord
100
AcDbRegAppTableRecord
  2
HATCHBACKGROUNDCOLOR
 70
0
  0
APPID
  5
35
330
3
100
AcDbSymbolTableRecord
100
AcDbRegAppTableRecord
  2
EZDXF
 70
0
  0
ENDTAB
  0
TABLE
  2
DIMSTYLE
  5
4
330
0
100
AcDbSymbolTable
 70
1
100
AcDbDimStyleTable
  0
DIMSTYLE
105
2B
330
4
100
AcDbSymbolTableRecord
100
AcDbDimStyleTableRecord
  2
Standard
 70
0
  3

  4

 40
1.0
 41
2.5
 42
0.625
 43
3.75
 44
1.25
 45
0.0
 46
0.0
 47
0.0
 48
0.0
140
2.5
141
2.5
142
0.0
143
0.03937007874
144
1.0
145
0.0
146
1.0
147
0.625
148
0.0
 71
0
 72
0
 73
0
 74
0
 75
0
 76
0
 77
1
 78
8
 79
3
170
0
171
3
172
1
173
0
174
0
175
0
176
0
177
0
178
0
179
2
271
2
272
2
273
2
274
3
275
0
276
0
277
2
278
44
279
0
280
0
281
0
282
0
283
0
284
8
285
0
286
0
288
0
289
3
371
-2
372
-2
  0
ENDTAB
  0
TABLE
  2
BLOCK_RECORD
  5
9
330
0
100
AcDbSymbolTable
 70
2
  0
BLOCK_RECORD
  5
17
330
9
100
AcDbSymbolTableRecord
100
AcDbBlockTableRecord
  2
*Model_Space
340
1A
  0
BLOCK_RECORD
  5
1B
330
9
100
AcDbSymbolTableRecord
100
AcDbBlockTableRecord
  2
*Paper_Space
340
1E
  0
ENDTAB
  0
ENDSEC
  0
SECTION
  2
BLOCKS
  0
BLOCK
  5
18
330
17
100
AcDbEntity
  8
0
100
AcDbBlockBegin
  2
*Model_Space
 70
0
 10
0.0
 20
0.0
 30
0.0
  3
*Model_Space
  1

  0
ENDBLK
  5
19
330
17
100
AcDbEntity
  8
0
100
AcDbBlockEnd
  0
BLOCK
  5
1C
330
1B
100
AcDbEntity
  8
0
100
AcDbBlockBegin
  2
*Paper_Space
 70
0
 10
0.0
 20
0.0
 30
0.0
  3
*Paper_Space
  1

  0
ENDBLK
  5
1D
330
1B
100
AcDbEntity
  8
0
100
AcDbBlockEnd
  0
ENDSEC
  0
SECTION
  2
ENTITIES
  0
LWPOLYLINE
  5
2F
330
17
100
AcDbEntity
  8
0
100
AcDbPolyline
 90
49
 70
0
 10
-12.413642486262974
 20
14.344653539681659
 10
-36.96506873687197
 20
14.344653539681659
 10
-51.58558099847059
 20
18.206675646519027
 10
-54.620026939557086
 20
21.241121587605534
 10
-49.93042866696885
 20
24.82728497252595
 10
-39.99951467795847
 20
28.413448357446363
 10
-41.6546670094602
 20
32.27547046428373
 10
-41.1029495656263
 20
55.171744383391
 10
-41.6546670094602
 20
56.27517927105881
 10
-44.68911295054671
 20
56.27517927105881
 10
-45.792547838214524
 20
57.10275543680967
 10
-46.34426528204844
 20
61.51649498748096
 10
-44.68911295054671
 20
63.44750604089965
 10
-41.93052573137716
 20
63.44750604089965
 10
-41.1029495656263
 20
62.34407115323182
 10
-40.827090843709335
 20
68.68882175732179
 10
-41.93052573137716
 20
71.44740897649133
 10
-42.48224317521107
 20
79.72317063399998
 10
-41.6546670094602
 20
87.17135612575777
 10
-38.89607979029065
 20
89.92994334492732
 10
-33.93062279578546
 20
90.48166078876123
 10
-33.654764073868506
 20
248.8245671690934
 10
-31.44789429853287
 20
251.30729566634596
 10
-19.31011053418685
 20
251.30729566634596
 10
-16.827382036934253
 20
249.65214333484428
 10
-15.999805871183387
 20
245.238403784173
 10
-16.5515233150173
 20
243.8591101745882
 10
-15.172229705432525
 20
233.10062001982698
 10
-15.999805871183387
 20
226.755869415737
 10
-15.723947149266435
 20
211.3077809883875
 10
-16.5515233150173
 20
210.48020482263667
 10
-16.275664593100345
 20
101.7918683873564
 10
-10.206772710927334
 20
100.96429222160552
 10
-6.620609326006919
 20
97.37812883668511
 10
-6.344750604089964
 20
93.51610672984773
 10
-9.655055267093426
 20
89.65408462301036
 10
-9.655055267093426
 20
88.2747910134256
 10
-7.448185491757784
 20
85.51620379425604
 10
-4.96545699450519
 20
77.2404421367474
 10
-5.793033160256055
 20
73.10256130799307
 10
-10.206772710927334
 20
69.2405392011557
 10
-10.758490154761244
 20
44.41325422862975
 10
-9.655055267093426
 20
42.48224317521107
 10
16.5515233150173
 20
35.58577512728719
 10
22.620415197190308
 20
29.241024523197225
 10
22.620415197190308
 20
28.137589635529405
 10
18.75839309035294
 20
23.723850084858128
 10
15.172229705432525
 20
21.516980309522488
 10
-12.413642486262974
 20
14.344653539681659
  0
LWPOLYLINE
  5
30
330
17
100
AcDbEntity
  8
0
100
AcDbPolyline
 90
44
 70
0
 10
161.92906976525256
 20
48.826993779301034
 10
131.30875163247057
 20
49.37871122313494
 10
127.17087080371626
 20
49.93042866696885
 10
126.06743591604842
 20
51.033863554636675
 10
126.8950120817993
 20
66.7578107039031
 10
129.37774057905187
 20
87.44721484767473
 10
132.68804524205535
 20
107.30904282569547
 10
132.68804524205535
 20
110.8952062106159
 10
133.5156214078062
 20
111.99864109828373
 10
135.17077373930795
 20
121.10197892154322
 10
134.34319757355706
 20
129.37774057905187
 10
136.55006734889272
 20
141.23966562148095
 10
139.5845132899792
 20
151.17057961049133
 10
139.5845132899792
 20
153.37744938582696
 10
137.9293609584775
 20
155.5843191611626
 10
133.79148012972317
 20
179.03231052410376
 10
132.4121865201384
 20
198.89413850212455
 10
132.9639039639723
 20
200.82514955554322
 10
132.68804524205535
 20
211.03192226647056
 10
133.23976268588925
 20
216.8249554267266
 10
134.89491501739099
 20
225.65243452806916
 10
138.20521968039444
 20
232.2730438540761
 10
143.9982528406505
 20
236.41092468283043
 10
149.23956855707266
 20
237.2385008485813
 10
156.41189532691348
 20
236.13506596091344
 10
158.89462382416608
 20
235.03163107324565
 10
161.92906976525256
 20
232.54890257599303
 10
164.68765698442212
 20
227.58344558148787
 10
166.0669505940069
 20
220.13526008973005
 10
165.79109187208994
 20
194.48039895145325
 10
164.68765698442212
 20
188.96322451311414
 10
164.96351570633908
 20
186.48049601586158
 10
163.86008081867126
 20
177.92887563643595
 10
158.34290638033215
 20
153.9291668296609
 10
156.13603660499652
 20
152.27401449815915
 10
160.27391743375085
 20
127.4467295256332
 10
160.27391743375085
 20
125.23985975029755
 10
159.17048254608304
 20
122.75713125304497
 10
159.72219998991693
 20
121.65369636537714
 10
161.65321104333563
 20
101.51600966543943
 10
163.30836337483734
 20
76.41286597099652
 10
163.86008081867126
 20
51.58558099847059
 10
163.30836337483734
 20
49.93042866696885
 10
161.92906976525256
 20
48.826993779301034
  0
LWPOLYLINE
  5
31
330
17
100
AcDbEntity
  8
0
100
AcDbPolyline
 90
60
 70
0
 10
33.37890535195155
 20
43.30981934096193
 10
32.55132918620069
 20
43.861536784795845
 10
31.999611742366774
 20
46.620124003965394
 10
31.723753020449823
 20
55.99932054914186
 10
30.620318132782
 20
57.378614158726634
 10
28.413448357446363
 20
55.99932054914186
 10
26.206578582110726
 20
44.96497167246366
 10
25.379002416359857
 20
43.861536784795845
 10
24.551426250608994
 20
44.96497167246366
 10
22.344556475273354
 20
62.89578859706574
 10
17.65495820268512
 20
76.41286597099652
 10
14.068794817764703
 20
77.51630085866435
 10
12.689501208179928
 20
79.72317063399998
 10
12.413642486262974
 20
86.61963868192386
 10
11.310207598595154
 20
91.58509567642905
 10
7.172326769840829
 20
101.51600966543943
 10
1.379293609584775
 20
119.4468265900415
 10
-2.482728497252595
 20
137.9293609584775
 10
-6.068891882173009
 20
160.82563487758475
 10
-5.793033160256055
 20
168.82553781317645
 10
-3.0344459410865046
 20
171.584125032346
 10
-0.55171744383391
 20
171.584125032346
 10
1.379293609584775
 20
170.48069014467816
 10
3.8620221068373697
 20
166.34280931592386
 10
13.79293609584775
 20
129.1018818571349
 10
24.275567528692036
 20
99.58499861202075
 10
25.379002416359857
 20
89.37822590109342
 10
30.896176854698957
 20
77.2404421367474
 10
31.999611742366774
 20
77.7921595805813
 10
37.51678618070588
 20
86.89549740384082
 10
39.447797234124565
 20
94.3436828955986
 10
53.240733329972315
 20
121.9295550872941
 10
59.585483934062275
 20
136.8259260708097
 10
69.2405392011557
 20
163.0325046529204
 10
73.37842002991002
 20
166.34280931592386
 10
76.41286597099652
 20
165.239374428256
 10
78.3438770244152
 20
163.0325046529204
 10
78.61973574633217
 20
159.44634126799997
 10
76.96458341483044
 20
152.5498732200761
 10
77.2404421367474
 20
150.0671447228235
 10
75.86114852716263
 20
147.30855750365396
 10
75.86114852716263
 20
144.82582900640136
 10
74.48185491757785
 20
142.34310050914877
 10
73.37842002991002
 20
135.4466324612249
 10
71.44740897649133
 20
131.30875163247057
 10
71.44740897649133
 20
129.1018818571349
 10
68.68882175732179
 20
120.55026147770933
 10
59.30962521214533
 20
100.96429222160552
 10
59.03376649022836
 20
99.03328116818683
 10
55.99932054914186
 20
94.61954161751557
 10
54.620026939557086
 20
90.48166078876123
 10
51.86143972038754
 20
86.89549740384082
 10
50.206287388885805
 20
81.93004040933563
 10
48.826993779301034
 20
73.65427875182698
 10
47.447700169716256
 20
72.55084386415916
 10
43.585678062878884
 20
71.99912642032525
 10
40.55123212179238
 20
64.27508220665051
 10
38.06850362453979
 20
60.13720137789619
 10
36.413351293038055
 20
51.86143972038754
 10
33.37890535195155
 20
43.30981934096193
  0
LWPOLYLINE
  5
32
330
17
100
AcDbEntity
  8
0
100
AcDbPolyline
 90
60
 70
0
 10
49.10285250121799
 20
127.17087080371626
 10
46.89598272588234
 20
129.37774057905187
 10
46.34426528204844
 20
133.5156214078062
 10
44.68911295054671
 20
136.27420862697576
 10
36.413351293038055
 20
160.5497761556678
 10
35.034057683453284
 20
162.4807872090865
 10
31.723753020449823
 20
161.92906976525256
 10
20.689404143771625
 20
129.37774057905187
 10
18.75839309035294
 20
127.4467295256332
 10
17.930816924602073
 20
127.9984469694671
 10
18.206675646519027
 20
135.17077373930795
 10
21.241121587605534
 20
157.23947149266434
 10
25.379002416359857
 20
170.48069014467816
 10
20.137686699937714
 20
183.1701913528581
 10
17.10324075885121
 20
182.6184739090242
 10
5.793033160256055
 20
194.48039895145325
 10
-1.6551523315017298
 20
203.30787805279581
 10
-6.896468047923875
 20
212.41121587605534
 10
-11.0343488766782
 20
225.65243452806916
 10
-12.137783764346018
 20
232.82476129791
 10
-11.58606632051211
 20
244.68668634033907
 10
-10.206772710927334
 20
247.44527355950862
 10
-6.620609326006919
 20
250.4797195005951
 10
-4.137880828754325
 20
250.20386077867818
 10
-2.75858721916955
 20
248.8245671690934
 10
-1.379293609584775
 20
245.238403784173
 10
-0.55171744383391
 20
229.23859791298958
 10
4.137880828754325
 20
215.1698030952249
 10
9.37919654517647
 20
207.1699001596332
 10
19.5859692561038
 20
197.79070361445673
 10
21.516980309522488
 20
194.2045402295363
 10
26.75829602594463
 20
190.066659400782
 10
30.068600688948095
 20
182.34261518710724
 10
37.51678618070588
 20
182.34261518710724
 10
40.27537339987543
 20
189.51494195694806
 10
47.447700169716256
 20
194.48039895145325
 10
48.55113505738407
 20
196.6872687267889
 10
56.55103799297577
 20
203.5837367747128
 10
62.068212431314876
 20
209.9284873788027
 10
66.2060932600692
 20
217.6525315924775
 10
68.96468047923875
 20
225.92829324998613
 10
70.34397408882353
 20
243.3073927307543
 10
71.44740897649133
 20
247.16941483759166
 10
73.10256130799307
 20
248.2728497252595
 10
75.86114852716263
 20
247.72113228142555
 10
80.55074679975085
 20
241.9280991211695
 10
81.10246424358476
 20
230.89375024449132
 10
79.99902935591695
 20
223.72142347465046
 10
77.51630085866435
 20
215.44566181714183
 10
73.65427875182698
 20
207.1699001596332
 10
65.93023453815223
 20
196.135551282955
 10
50.206287388885805
 20
180.6874628556055
 10
47.1718414477993
 20
181.79089774327332
 10
44.68911295054671
 20
177.1012994706851
 10
43.585678062878884
 20
171.584125032346
 10
42.20638445329411
 20
170.20483142276123
 10
43.585678062878884
 20
167.44624420359168
 10
46.620124003965394
 20
155.0326017173287
 10
49.37871122313494
 20
131.86046907630447
 10
49.10285250121799
 20
127.17087080371626
  0
LWPOLYLINE
  5
33
330
17
100
AcDbEntity
  8
0
100
AcDbPolyline
 90
67
 70
0
 10
107.30904282569547
 20
57.65447288064359
 10
105.65389049419375
 20
59.30962521214533
 10
100.68843349968856
 20
61.792353709397915
 10
99.03328116818683
 20
60.96477754364705
 10
95.17125906134946
 20
61.240636265564
 10
93.51610672984773
 20
63.171647318982686
 10
93.51610672984773
 20
67.86124559157092
 10
97.92984628051902
 20
83.3093340189204
 10
101.51600966543943
 20
93.51610672984773
 10
105.3780317722768
 20
112.27449982020067
 10
108.13661899144635
 20
121.65369636537714
 10
109.51591260103112
 20
130.4811754667197
 10
109.24005387911417
 20
132.13632779822143
 10
109.79177132294808
 20
133.5156214078062
 10
111.4469236544498
 20
158.89462382416608
 10
111.4469236544498
 20
173.79099480768164
 10
110.8952062106159
 20
174.6185709734325
 10
111.17106493253284
 20
177.653016914519
 10
110.61934748869895
 20
178.75645180218683
 10
110.8952062106159
 20
183.72190879669202
 10
110.343488766782
 20
185.6529198501107
 10
110.8952062106159
 20
187.03221345969547
 10
110.343488766782
 20
188.1356483473633
 10
110.61934748869895
 20
195.03211639528718
 10
110.06763004486503
 20
196.135551282955
 10
110.06763004486503
 20
220.13526008973005
 10
110.8952062106159
 20
222.3421298650657
 10
110.343488766782
 20
226.755869415737
 10
110.8952062106159
 20
227.58344558148787
 10
111.17106493253284
 20
231.44546768832524
 10
113.3779347078685
 20
232.54890257599303
 10
114.75722831745327
 20
232.54890257599303
 10
116.68823937087195
 20
230.89375024449132
 10
116.412380648955
 20
225.92829324998613
 10
116.9640980927889
 20
225.37657580615223
 10
116.68823937087195
 20
191.1700942884498
 10
117.79167425853977
 20
167.1703854816747
 10
118.34339170237368
 20
164.68765698442212
 10
118.34339170237368
 20
148.9637098351557
 10
116.9640980927889
 20
133.23976268588925
 10
117.23995681470588
 20
131.30875163247057
 10
115.03308703937023
 20
118.8951091462076
 10
111.99864109828373
 20
107.30904282569547
 10
110.8952062106159
 20
97.10227011476815
 10
111.4469236544498
 20
96.55055267093424
 10
114.20551087361935
 20
97.37812883668511
 10
116.13652192703805
 20
96.8264113928512
 10
120.82612019962627
 20
97.10227011476815
 10
121.65369636537714
 20
96.27469394901729
 10
121.9295550872941
 20
94.61954161751557
 10
121.65369636537714
 20
91.86095439834601
 10
120.82612019962627
 20
90.48166078876123
 10
120.27440275579238
 20
84.96448635042213
 10
118.34339170237368
 20
82.7576165750865
 10
118.34339170237368
 20
80.82660552166782
 10
117.51581553662282
 20
79.44731191208304
 10
117.79167425853977
 20
77.7921595805813
 10
116.13652192703805
 20
75.86114852716263
 10
116.412380648955
 20
74.20599619566089
 10
114.20551087361935
 20
69.51639792307265
 10
114.20551087361935
 20
66.2060932600692
 10
113.3779347078685
 20
65.37851709431833
 10
113.3779347078685
 20
63.7233647628166
 10
111.72278237636678
 20
60.96477754364705
 10
111.17106493253284
 20
58.48204904639445
 10
109.79177132294808
 20
57.65447288064359
 10
107.30904282569547
 20
57.65447288064359
  0
ENDSEC
  0
SECTION
  2
OBJECTS
  0
DICTIONARY
  5
A
330
0
100
AcDbDictionary
280
0
281
1
  3
ACAD_COLOR
350
B
  3
ACAD_GROUP
350
C
  3
ACAD_LAYOUT
350
D
  3
ACAD_MATERIAL
350
E
  3
ACAD_MLEADERSTYLE
350
F
  3
ACAD_MLINESTYLE
350
10
  3
ACAD_PLOTSETTINGS
350
11
  3
ACAD_PLOTSTYLENAME
350
12
  3
ACAD_SCALELIST
350
14
  3
ACAD_TABLESTYLE
350
15
  3
ACAD_VISUALSTYLE
350
16
  3
EZDXF_META
350
2D
  0
DICTIONARY
  5
B
330
A
100
AcDbDictionary
280
0
281
1
  0
DICTIONARY
  5
C
330
A
100
AcDbDictionary
280
0
281
1
  0
DICTIONARY
  5
D
330
A
100
AcDbDictionary
280
0
281
1
  3
Model
350
1A
  3
Layout1
350
1E
  0
DICTIONARY
  5
E
330
A
100
AcDbDictionary
280
0
281
1
  3
ByBlock
350
1F
  3
ByLayer
350
20
  3
Global
350
21
  0
DICTIONARY
  5
F
330
A
100
AcDbDictionary
280
0
281
1
  3
Standard
350
2C
  0
DICTIONARY
  5
10
330
A
100
AcDbDictionary
280
0
281
1
  3
Standard
350
22
  0
DICTIONARY
  5
11
330
A
100
AcDbDictionary
280
0
281
1
  0
ACDBDICTIONARYWDFLT
  5
12
330
A
100
AcDbDictionary
280
0
281
1
  3
Normal
350
13
100
AcDbDictionaryWithDefault
340
13
  0
ACDBPLACEHOLDER
  5
13
330
12
  0
DICTIONARY
  5
14
330
A
100
AcDbDictionary
280
0
281
1
  0
DICTIONARY
  5
15
330
A
100
AcDbDictionary
280
0
281
1
  0
DICTIONARY
  5
16
330
A
100
AcDbDictionary
280
0
281
1
  0
LAYOUT
  5
1A
330
D
100
AcDbPlotSettings
  1

  2
Adobe PDF
  4
A3
  6

 40
7.5
 41
20.0
 42
7.5
 43
20.0
 44
420.0
 45
297.0
 46
0.0
 47
0.0
 48
0.0
 49
0.0
140
0.0
141
0.0
142
1.0
143
1.0
 70
1024
 72
1
 73
0
 74
5
  7

 75
16
 76
0
 77
2
 78
300
147
1.0
148
0.0
149
0.0
100
AcDbLayout
  1
Model
 70
1
 71
0
 10
0.0
 20
0.0
 11
420.0
 21
297.0
 12
0.0
 22
0.0
 32
0.0
 14
1e+20
 24
1e+20
 34
1e+20
 15
-1e+20
 25
-1e+20
 35
-1e+20
146
0.0
 13
0.0
 23
0.0
 33
0.0
 16
1.0
 26
0.0
 36
0.0
 17
0.0
 27
1.0
 37
0.0
 76
1
330
17
  0
LAYOUT
  5
1E
330
D
100
AcDbPlotSettings
  1

  2
Adobe PDF
  4
A3
  6

 40
7.5
 41
20.0
 42
7.5
 43
20.0
 44
420.0
 45
297.0
 46
0.0
 47
0.0
 48
0.0
 49
0.0
140
0.0
141
0.0
142
1.0
143
1.0
 70
0
 72
1
 73
0
 74
5
  7

 75
16
 76
0
 77
2
 78
300
147
1.0
148
0.0
149
0.0
100
AcDbLayout
  1
Layout1
 70
1
 71
1
 10
0.0
 20
0.0
 11
420.0
 21
297.0
 12
0.0
 22
0.0
 32
0.0
 14
1e+20
 24
1e+20
 34
1e+20
 15
-1e+20
 25
-1e+20
 35
-1e+20
146
0.0
 13
0.0
 23
0.0
 33
0.0
 16
1.0
 26
0.0
 36
0.0
 17
0.0
 27
1.0
 37
0.0
 76
1
330
1B
  0
MATERIAL
  5
1F
102
{ACAD_REACTORS
330
E
102
}
330
E
100
AcDbMaterial
  1
ByBlock
  2

 70
0
 40
1.0
 71
1
 41
1.0
 91
-1023410177
 42
1.0
 72
1
  3

 73
1
 74
1
 75
1
 44
0.5
 73
0
 45
1.0
 46
1.0
 77
1
  4

 78
1
 79
1
170
1
 48
1.0
171
1
  6

172
1
173
1
174
1
140
1.0
141
1.0
175
1
  7

176
1
177
1
178
1
143
1.0
179
1
  8

270
1
271
1
272
1
145
1.0
146
1.0
273
1
  9

274
1
275
1
276
1
 42
1.0
 72
1
  3

 73
1
 74
1
 75
1
 94
63
  0
MATERIAL
  5
20
102
{ACAD_REACTORS
330
E
102
}
330
E
100
AcDbMaterial
  1
ByLayer
  2

 70
0
 40
1.0
 71
1
 41
1.0
 91
-1023410177
 42
1.0
 72
1
  3

 73
1
 74
1
 75
1
 44
0.5
 73
0
 45
1.0
 46
1.0
 77
1
  4

 78
1
 79
1
170
1
 48
1.0
171
1
  6

172
1
173
1
174
1
140
1.0
141
1.0
175
1
  7

176
1
177
1
178
1
143
1.0
179
1
  8

270
1
271
1
272
1
145
1.0
146
1.0
273
1
  9

274
1
275
1
276
1
 42
1.0
 72
1
  3

 73
1
 74
1
 75
1
 94
63
  0
MATERIAL
  5
21
102
{ACAD_REACTORS
330
E
102
}
330
E
100
AcDbMaterial
  1
Global
  2

 70
0
 40
1.0
 71
1
 41
1.0
 91
-1023410177
 42
1.0
 72
1
  3

 73
1
 74
1
 75
1
 44
0.5
 73
0
 45
1.0
 46
1.0
 77
1
  4

 78
1
 79
1
170
1
 48
1.0
171
1
  6

172
1
173
1
174
1
140
1.0
141
1.0
175
1
  7

176
1
177
1
178
1
143
1.0
179
1
  8

270
1
271
1
272
1
145
1.0
146
1.0
273
1
  9

274
1
275
1
276
1
 42
1.0
 72
1
  3

 73
1
 74
1
 75
1
 94
63
  0
MLINESTYLE
  5
22
102
{ACAD_REACTORS
330
10
102
}
330
10
100
AcDbMlineStyle
  2
Standard
 70
0
  3

 62
256
 51
90.0
 52
90.0
 71
2
 49
0.5
 62
256
  6
BYLAYER
 49
-0.5
 62
256
  6
BYLAYER
  0
MLEADERSTYLE
  5
2C
102
{ACAD_REACTORS
330
F
102
}
330
F
100
AcDbMLeaderStyle
179
2
170
2
171
1
172
0
 90
2
 40
0.0
 41
0.0
173
1
 91
-1056964608
 92
-2
290
1
 42
2.0
291
1
 43
8.0
  3
Standard
 44
4.0
300

342
29
174
1
175
1
176
0
178
1
 93
-1056964608
 45
4.0
292
0
297
0
 46
4.0
 94
-1056964608
 47
1.0
 49
1.0
140
1.0
294
1
141
0.0
177
0
142
1.0
295
0
296
0
143
3.75
271
0
272
9
273
9
  0
DICTIONARY
  5
2D
330
A
100
AcDbDictionary
281
1
  3
CREATED_BY_EZDXF
350
2E
  3
WRITTEN_BY_EZDXF
350
36
  0
DICTIONARYVAR
  5
2E
330
2D
100
DictionaryVariables
280
0
  1
1.3.0 @ 2024-05-07T21:28:59.956286+00:00
  0
DICTIONARYVAR
  5
36
330
2D
100
DictionaryVariables
280
0
  1
1.3.0 @ 2024-05-07T21:28:59.960210+00:00
  0
ENDSEC
  0
EOF
