<svg width="2040mm" height="1995mm" viewBox="0 0 5000 4890" xmlns="http://www.w3.org/2000/svg"><polyline points="0,0 500,0 500,489 0,489" stroke="black" fill="none"/><polygon points="189,112 188,113 188,116 189,117 189,128 190,129 190,139 191,140 191,149 192,150 192,158 193,159 193,169 194,170 194,179 195,180 195,185 196,186 196,190 197,191 197,194 198,195 198,197 199,198 199,201 200,202 200,204 201,205 201,207 202,208 202,210 207,215 205,217 204,217 201,220 201,224 200,225 200,227 199,228 199,229 198,230 198,232 197,233 197,234 196,235 196,237 195,238 195,239 193,241 193,242 190,245 189,245 186,242 184,242 159,267 158,267 142,283 142,284 137,289 137,290 134,293 134,294 132,296 132,297 130,299 130,300 129,301 129,302 127,304 127,305 126,306 126,307 125,308 125,309 124,310 124,311 123,312 123,313 122,314 122,315 121,316 121,317 120,318 120,319 119,320 119,321 118,322 118,323 117,324 117,326 116,327 116,328 115,329 115,331 114,332 114,335 113,336 113,338 112,339 112,342 111,343 111,346 110,347 110,351 109,352 109,357 108,358 108,370 107,371 107,375 108,376 108,388 109,389 109,391 110,392 110,393 113,396 113,397 117,401 118,401 119,402 121,402 122,403 126,403 128,401 128,400 129,399 129,397 130,396 130,392 131,391 131,372 132,371 132,362 133,361 133,355 134,354 134,350 135,349 135,346 136,345 136,343 137,342 137,340 138,339 138,338 139,337 139,335 140,334 140,333 141,332 141,330 142,329 142,328 143,327 143,326 145,324 145,323 146,322 146,321 147,320 147,319 149,317 149,316 150,315 150,314 152,312 152,311 155,308 155,307 172,290 173,290 178,285 179,285 182,282 183,282 186,279 186,278 187,277 187,276 192,271 193,271 195,269 196,269 197,268 198,268 200,266 201,266 203,264 204,264 206,262 206,261 207,260 207,259 208,258 208,257 209,256 209,254 210,253 210,251 211,250 211,248 212,247 212,246 214,244 221,244 222,245 224,245 225,244 233,244 235,246 235,247 236,248 236,250 237,251 237,254 238,255 238,257 240,259 240,264 242,266 243,266 246,269 247,269 249,271 250,271 256,277 256,280 257,281 257,282 265,290 266,290 282,306 282,307 285,310 285,311 287,313 287,314 290,317 290,318 291,319 291,320 292,321 292,322 293,323 293,324 294,325 294,326 295,327 295,328 296,329 296,330 297,331 297,333 298,334 298,335 299,336 299,338 300,339 300,341 301,342 301,344 302,345 302,348 303,349 303,351 304,352 304,357 305,358 305,366 306,367 306,397 307,398 307,401 308,402 308,403 309,404 309,406 310,407 310,408 312,410 313,410 314,411 317,411 318,410 319,410 320,409 321,409 326,404 326,403 328,401 328,400 329,399 329,396 330,395 330,391 331,390 331,375 332,374 332,369 331,368 331,359 330,358 330,352 329,351 329,347 328,346 328,342 327,341 327,339 326,338 326,335 325,334 325,333 324,332 324,330 323,329 323,326 322,325 322,324 321,323 321,321 320,320 320,319 319,318 319,317 318,316 318,314 317,313 317,312 316,311 316,310 314,308 314,307 312,305 312,304 311,303 311,302 309,300 309,299 307,297 307,296 305,294 305,293 302,290 302,289 297,284 297,283 277,263 277,262 269,254 269,253 263,247 261,247 259,249 257,249 255,247 255,246 254,245 254,244 253,243 253,242 252,241 252,240 251,239 251,237 250,236 250,234 249,233 249,231 248,230 248,228 247,227 247,224 246,223 246,221 245,220 245,219 243,217 243,214 244,213 244,211 245,210 245,208 246,207 246,205 247,204 247,202 248,201 248,199 249,198 249,196 250,195 250,193 251,192 251,190 252,189 252,187 253,186 253,183 254,182 254,177 255,176 255,170 256,169 256,163 257,162 257,155 258,154 258,148 259,147 259,141 260,140 260,134 261,133 261,125 262,124 262,113 261,112 260,112 260,113 259,114 259,115 258,116 258,118 257,119 257,120 256,121 256,123 255,124 255,126 254,127 254,129 253,130 253,132 252,133 252,135 251,136 251,138 250,139 250,140 249,141 249,143 248,144 248,145 247,146 247,148 246,149 246,151 245,152 245,154 244,155 244,157 243,158 243,160 242,161 242,163 241,164 241,166 240,167 240,169 239,170 239,172 238,173 238,174 237,175 237,177 236,178 236,179 235,180 235,181 234,182 234,183 233,184 233,186 232,187 232,189 231,190 231,191 230,192 230,194 229,195 229,196 227,198 221,198 218,195 218,193 217,192 217,190 216,189 216,186 215,185 215,183 214,182 214,181 213,180 213,178 212,177 212,174 211,173 211,171 210,170 210,169 209,168 209,166 208,165 208,162 207,161 207,160 206,159 206,156 205,155 205,153 204,152 204,150 203,149 203,147 202,146 202,144 201,143 201,141 200,140 200,138 199,137 199,135 198,134 198,132 197,131 197,129 196,128 196,126 195,125 195,123 194,122 194,120 193,119 193,118 192,117 192,115 191,114 191,112 " fill="black"/></svg>