<svg width="3024mm" height="2987mm" viewBox="0 0 30240 29870" xmlns="http://www.w3.org/2000/svg"><polyline points="0,0 3024,0 3024,2987 0,2987" stroke="black" fill="none"/><polygon points="745,52 834,52 898,77 845,103 849,200 866,207 868,223 849,226 851,316 823,328 823,875 814,911 770,911 758,889 759,369 724,353 735,320 718,280 737,251 739,161 640,129 618,106 645,78 " fill="black"/><polygon points="113,177 243,185 231,317 210,439 213,469 194,548 215,649 217,786 199,842 178,857 133,856 113,843 98,798 106,645 126,558 134,552 119,462 123,445 108,277 106,187 " fill="black"/></svg>